<svg width="637" height="572" viewBox="0 0 637 572" fill="none" xmlns="http://www.w3.org/2000/svg">
<path d="M554.22 169.915C616.288 278.134 613.995 420.146 399.589 533.875C698.743 404.22 658.867 261.866 554.22 169.915Z" fill="#D33B33"/>
<path d="M331 5.93243C437.5 -15.5 855 346.646 331 566.146M331 72.9759C433.702 51.5534 952.5 333.646 331 561.146M329 5C343.338 11.9821 363.411 35.5571 329 74" stroke="black" stroke-width="10"/>
<path d="M83.2739 401.232C21.2056 293.012 23.4988 151 237.905 37.2714C-61.2497 166.926 -21.3736 309.281 83.2739 401.232Z" fill="#D33B33"/>
<path d="M306.494 565.214C199.994 586.646 -217.506 224.5 306.494 5M306.494 498.17C203.791 519.593 -315.006 237.5 306.494 10M308.494 566.146C294.156 559.164 274.083 535.589 308.494 497.146" stroke="black" stroke-width="10"/>
<path d="M381 442.4C351.667 442.4 329.133 433.733 313.4 416.4C297.667 399.067 289.8 374.133 289.8 341.6C289.8 318.933 294.2 298.8 303 281.2C312.067 263.333 324.6 249.467 340.6 239.6C356.867 229.733 375.4 224.8 396.2 224.8C420.467 224.8 441.267 228 458.6 234.4C458.6 240 457.533 246.533 455.4 254C453.267 261.467 450.733 267.467 447.8 272C435.8 264.267 423 257.733 409.4 252.4C396.067 247.067 385.4 244.4 377.4 244.4C368.6 246.533 360.333 252 352.6 260.8C345.133 269.333 339.133 279.867 334.6 292.4C330.067 304.667 327.8 317.333 327.8 330.4C327.8 360.533 333.133 382.267 343.8 395.6C354.733 408.667 372.6 415.2 397.4 415.2C408.6 415.2 418.6 413.867 427.4 411.2C427.4 367.733 425.267 340.933 421 330.8C427.933 329.2 434.6 328.4 441 328.4C447.667 328.4 455.267 329.2 463.8 330.8C461.4 357.733 460.2 385.733 460.2 414.8C451.4 423.067 439.667 429.733 425 434.8C410.6 439.867 395.933 442.4 381 442.4Z" fill="#D33B33"/>
<path d="M261.4 365.8C247.533 365.8 233.533 364.733 219.4 362.6C205.533 360.733 194.067 358.2 185 355C186.067 343.267 186.867 325.933 187.4 303C188.2 280.067 188.6 257.8 188.6 236.2C188.6 194.067 186.333 168.333 181.8 159C191.4 155.8 203.267 153.267 217.4 151.4C231.8 149.267 245.933 148.2 259.8 148.2C285.133 148.2 304.6 153.133 318.2 163C331.8 172.6 338.6 186.467 338.6 204.6C338.6 214.467 335.667 223.4 329.8 231.4C323.933 239.4 315.667 245.933 305 251C318.6 255.533 329.267 262.467 337 271.8C344.733 280.867 348.6 291.4 348.6 303.4C348.6 323.4 341 338.867 325.8 349.8C310.867 360.467 289.4 365.8 261.4 365.8ZM223 248.2C232.867 245.533 245.133 244.2 259.8 244.2C267.533 244.2 273.133 244.467 276.6 245C292.6 234.067 300.6 222.067 300.6 209C300.6 185.8 285.533 174.2 255.4 174.2C244.467 174.2 234.467 175.533 225.4 178.2C224.333 197.933 223.533 221.267 223 248.2ZM257 347.8C292.467 347.8 310.2 333 310.2 303.4C310.2 293.533 307.4 284.867 301.8 277.4C296.467 269.933 288.6 264.2 278.2 260.2C265.933 260.2 247.4 263.933 222.6 271.4C222.6 303.133 223.4 326.867 225 342.6C234.6 346.067 245.267 347.8 257 347.8Z" fill="black"/>
</svg>
